<svg xmlns="http://www.w3.org/2000/svg" viewBox="0 0 900 900" fill="none">
  <polygon points="582.00,198.00 516.00,312.32 384.00,312.32 318.00,198.00 384.00,83.68 516.00,83.68" fill="#E8232B"/>
  <polygon points="800.24,324.00 734.24,438.32 602.24,438.32 536.24,324.00 602.24,209.68 734.24,209.68" fill="#9E1620"/>
  <polygon points="800.24,576.00 734.24,690.32 602.24,690.32 536.24,576.00 602.24,461.68 734.24,461.68" fill="#E8232B"/>
  <polygon points="582.00,702.00 516.00,816.32 384.00,816.32 318.00,702.00 384.00,587.68 516.00,587.68" fill="#9E1620"/>
  <polygon points="363.76,576.00 297.76,690.32 165.76,690.32 99.76,576.00 165.76,461.68 297.76,461.68" fill="#E8232B"/>
  <polygon points="363.76,324.00 297.76,438.32 165.76,438.32 99.76,324.00 165.76,209.68 297.76,209.68" fill="#9E1620"/>
</svg>